HIERARCHY
ROOT Hips
{
	OFFSET -3.958830 18.904000 13.208200
	CHANNELS 6 Xposition Yposition Zposition Zrotation Yrotation Xrotation 
	JOINT LHipJoint
	{
		OFFSET 0.000000 0.000000 0.000000
		CHANNELS 3 Zrotation Yrotation Xrotation
		JOINT LeftUpLeg
		{
			OFFSET 1.800000 -1.400000 0.085000
			CHANNELS 3 Zrotation Yrotation Xrotation
			JOINT LeftLeg
			{
				OFFSET 2.215000 -6.000000 0.000000
				CHANNELS 3 Zrotation Yrotation Xrotation
				JOINT LeftFoot
				{
					OFFSET 2.500000 -6.900000 0.000000
					CHANNELS 3 Zrotation Yrotation Xrotation
					JOINT LeftToeBase
					{
						OFFSET 0.200000 -0.500000 1.950000
						CHANNELS 3 Zrotation Yrotation Xrotation
						End Site
						{
							OFFSET 0.000000 0.000000 0.000000
						}
					}
				}
			}
		}
	}
	JOINT RHipJoint
	{
		OFFSET 0.000000 0.000000 0.000000
		CHANNELS 3 Zrotation Yrotation Xrotation
		JOINT RightUpLeg
		{
			OFFSET -1.800000 -1.400000 0.085000
			CHANNELS 3 Zrotation Yrotation Xrotation
			JOINT RightLeg
			{
				OFFSET -2.215000 -6.000000 0.000000
				CHANNELS 3 Zrotation Yrotation Xrotation
				JOINT RightFoot
				{
					OFFSET -2.500000 -6.900000 0.000000
					CHANNELS 3 Zrotation Yrotation Xrotation
					JOINT RightToeBase
					{
						OFFSET -0.200000 -0.500000 1.950000
						CHANNELS 3 Zrotation Yrotation Xrotation
						End Site
						{
							OFFSET 0.000000 0.000000 0.000000
						}
					}
				}
			}
		}
	}
	JOINT LowerBack
	{
		OFFSET 0.000000 0.000000 0.000000
		CHANNELS 3 Zrotation Yrotation Xrotation
		JOINT Spine
		{
			OFFSET -0.087000 1.940000 -0.288900
			CHANNELS 3 Zrotation Yrotation Xrotation
			JOINT Spine1
			{
				OFFSET 0.000000 1.950000 0.060000
				CHANNELS 3 Zrotation Yrotation Xrotation
				JOINT Neck
				{
					OFFSET 0.000000 0.000000 0.000000
					CHANNELS 3 Zrotation Yrotation Xrotation
					JOINT Neck1
					{
						OFFSET 0.000000 1.600000 0.340000
						CHANNELS 3 Zrotation Yrotation Xrotation
						JOINT Head
						{
							OFFSET 0.000000 1.667000 -0.240000
							CHANNELS 3 Zrotation Yrotation Xrotation
							End Site
							{
								OFFSET 0.000000 0.000000 0.000000
							}
						}
					}
				}
				JOINT LeftShoulder
				{
					OFFSET 0.000000 0.000000 0.000000
					CHANNELS 3 Zrotation Yrotation Xrotation
					JOINT LeftArm
					{
						OFFSET 2.700000 1.550000 -0.730000
						CHANNELS 3 Zrotation Yrotation Xrotation
						JOINT LeftForeArm
						{
							OFFSET 5.450000 0.000000 0.000000
							CHANNELS 3 Zrotation Yrotation Xrotation
							JOINT LeftHand
							{
								OFFSET 3.450000 0.000000 0.000000
								CHANNELS 3 Zrotation Yrotation Xrotation
								JOINT LeftHandIndex1
								{
									OFFSET 0.750000 0.000000 0.000000
									CHANNELS 3 Zrotation Yrotation Xrotation
									End Site
									{
										OFFSET 0.000000 0.000000 0.000000
									}
								}
							}
						}
					}
				}
				JOINT RightShoulder
				{
					OFFSET 0.000000 0.000000 0.000000
					CHANNELS 3 Zrotation Yrotation Xrotation
					JOINT RightArm
					{
						OFFSET -2.700000 1.550000 -0.730000
						CHANNELS 3 Zrotation Yrotation Xrotation
						JOINT RightForeArm
						{
							OFFSET -5.450000 0.000000 0.000000
							CHANNELS 3 Zrotation Yrotation Xrotation
							JOINT RightHand
							{
								OFFSET -3.450000 0.000000 0.000000
								CHANNELS 3 Zrotation Yrotation Xrotation
								JOINT RightHandIndex1
								{
									OFFSET -0.750000 0.000000 0.000000
									CHANNELS 3 Zrotation Yrotation Xrotation
									End Site
									{
										OFFSET 0.000000 0.000000 0.000000
									}
								}
							}
						}
					}
				}
			}
		}
	}
}
MOTION
Frames: 14
Frame Time: 0.016667
0.506960 17.528990 -1.632260 -7.254480 8.217306 7.401014 -14.918645 12.478992 2.028748 5.881864 -1.484988 -15.356067 -1.864875 4.614659 15.273803 -0.707318 4.300062 3.599748 -0.072010 -0.311940 -0.442910 18.640977 -11.053395 3.409533 0.563779 4.931758 -26.288961 11.139899 -4.404695 10.449846 0.370024 -3.463790 3.317142 0.156170 1.412850 0.511680 -4.597495 1.019706 -6.460788 13.706414 -0.964666 -0.995349 -6.459791 -1.827048 9.564919 3.168033 1.430511 -6.910767 3.896155 -5.178163 16.437946 -6.394120 -5.881480 7.420370 -8.818968 3.017491 0.084974 -47.759552 -1.975270 -2.565468 1.715145 -2.519220 -1.281421 -5.027399 3.007589 -0.333610 1.077930 -0.822840 0.420470 2.711775 -3.911740 5.135282 58.379178 7.831567 0.024607 109.284539 72.641052 73.440760 2.439519 -0.552085 -0.382990 0.346030 0.336040 0.205190 
0.492220 17.491640 -1.636670 -6.936469 8.050923 7.584042 -14.938674 12.485695 2.025136 5.463852 -1.513517 -15.328675 -1.577524 4.511384 15.331117 -0.769009 4.317934 3.595335 -0.054490 -0.287910 -0.427170 18.626234 -11.019702 3.393945 -0.074656 4.665680 -25.907991 10.876996 -3.983875 8.182668 0.388410 -3.396484 3.332714 0.201920 1.432190 0.518610 -4.545399 0.942290 -6.437088 13.157931 -0.877391 -1.250046 -6.125133 -1.818158 9.788810 3.231113 1.596866 -6.835252 4.193815 -5.156079 16.036020 -6.855580 -5.563620 7.142800 -8.912595 3.020319 0.047019 -46.977455 -2.053476 -2.384325 1.414788 -2.805108 -1.338287 -5.066895 3.005667 -0.342830 1.111330 -0.840240 0.416710 2.773368 -4.109308 4.958923 57.610555 7.911113 -0.031549 111.181517 72.395560 75.873693 2.310086 -0.591739 -0.405850 0.364350 0.344890 0.190210 
0.458860 17.423800 -1.647790 -6.475582 7.513880 7.904951 -14.962855 12.460037 2.008448 4.987606 -1.547557 -15.063760 -1.379816 4.375951 15.007478 -0.838178 4.345380 3.602098 -0.025180 -0.265100 -0.400260 18.615690 -10.928536 3.413448 -1.165287 4.400710 -25.410464 10.633777 -3.289744 4.297150 0.400301 -3.344627 3.343408 0.257220 1.469070 0.530000 -4.487952 0.849630 -6.426637 12.350044 -0.743008 -1.556802 -5.539206 -1.827744 9.813204 3.130467 1.689017 -6.572039 4.372259 -4.939336 15.613130 -7.075070 -5.365260 6.908890 -8.957866 3.435952 -0.122473 -45.569536 -2.195060 -2.128325 0.833112 -3.874189 -1.434606 -5.108637 3.008291 -0.354920 1.151640 -0.868330 0.420540 3.118656 -4.630196 4.535816 56.797230 8.384701 0.081936 111.930421 73.114021 78.236386 2.259385 -0.359651 -0.436160 0.393600 0.351670 0.175350 
0.419500 17.343750 -1.668780 -5.935966 6.056609 8.360135 -14.982681 12.415212 2.014775 4.472048 -1.558282 -14.941020 -1.773912 4.442233 14.823399 -0.878969 4.402721 3.596048 -0.011770 -0.246840 -0.413610 18.610107 -10.830750 3.439622 -2.247632 4.371803 -25.686158 10.169890 -2.801685 1.945230 0.418821 -3.333895 3.348001 0.300580 1.515660 0.532990 -4.435680 0.785672 -6.416202 11.397281 -0.215739 -1.689360 -4.667114 -1.432192 9.413994 2.889292 1.644393 -6.178365 4.335368 -4.452617 15.299079 -6.907940 -5.162680 6.947370 -9.657698 3.869834 -0.322135 -43.706032 -2.296865 -1.849402 0.705286 -5.463283 -1.484207 -5.136417 3.024847 -0.375790 1.190740 -0.905760 0.433310 4.339509 -4.959855 3.884001 54.898093 8.579801 -0.184601 110.341625 74.789457 78.904315 2.375285 0.261331 -0.460700 0.418560 0.364190 0.175780 
0.374400 17.257140 -1.692140 -5.604538 4.543208 9.011762 -14.993070 12.373779 2.023254 4.029444 -1.683025 -15.590374 -1.795257 4.490990 15.357292 -0.927939 4.503496 3.598241 -0.012490 -0.229720 -0.448510 18.609288 -10.782612 3.450561 -3.117367 4.454818 -26.419686 9.957797 -2.620713 1.429187 0.475962 -3.404713 3.331057 0.369470 1.631700 0.543660 -4.407636 0.791140 -6.372419 10.850701 0.163318 -2.000853 -4.322758 -1.174819 8.716552 2.806854 1.515145 -5.589617 4.341232 -3.920889 14.134005 -7.112440 -4.768810 7.700810 -11.313290 4.431120 -0.683102 -40.619384 -2.053301 -1.486767 0.778949 -7.826886 -1.479977 -5.232428 3.064629 -0.471970 1.299990 -0.999890 0.459230 6.181800 -5.404772 3.090046 52.901798 8.611715 0.217312 109.283822 75.747439 79.444318 2.394979 0.619814 -0.497650 0.458100 0.382400 0.193680 
0.322500 17.187610 -1.710470 -5.105778 3.319386 9.316175 -15.012537 12.426533 2.084127 3.492664 -1.860810 -16.832256 -1.655064 4.652090 16.932064 -0.909630 4.593158 3.557687 -0.020180 -0.210470 -0.478680 18.583607 -10.804491 3.363125 -3.843582 4.350552 -27.024550 9.472455 -2.885315 3.475948 0.511045 -3.422193 3.312629 0.389380 1.669620 0.560570 -4.332418 0.671979 -6.290438 10.003258 0.442278 -1.982068 -3.532028 -0.969845 7.793139 2.414101 1.235172 -4.965953 3.960622 -3.382551 13.734981 -7.182420 -4.384180 8.036260 -12.602150 5.205986 -1.078103 -38.712024 -2.242679 -1.216175 1.118650 -10.195677 -1.409836 -5.261151 3.111655 -0.530900 1.343470 -1.025580 0.464720 8.188162 -5.849659 2.230568 50.953123 8.662998 1.387198 103.797926 78.585819 76.190622 2.829811 1.623302 -0.484460 0.453570 0.392280 0.216750 
0.270360 17.153890 -1.723070 -4.301585 3.615324 9.373277 -15.049658 12.533055 2.235658 2.581731 -2.359287 -19.277585 -0.714528 4.782591 20.254880 -0.883691 4.749019 3.483663 -0.033450 -0.221220 -0.464890 18.527924 -10.862206 3.208708 -4.733046 4.052161 -27.348200 9.042694 -3.528211 7.363396 0.519438 -3.472960 3.295353 0.373400 1.650070 0.535160 -4.199109 0.417665 -6.245751 8.603092 0.358960 -1.647916 -2.340380 -1.015880 7.032801 2.053517 1.228654 -4.701897 3.973616 -3.579609 13.608401 -7.541360 -4.067160 8.095110 -13.462835 5.887921 -1.691864 -38.198521 -3.231586 -1.114413 2.044119 -13.443626 -1.340876 -5.213506 3.089225 -0.509830 1.329860 -1.011970 0.457720 9.770726 -6.435736 2.393512 50.042738 8.440759 8.029955 82.982698 88.719602 63.072214 3.273274 1.379230 -0.497340 0.464460 0.381130 0.203250 
0.223280 17.158770 -1.739930 -3.571424 4.143304 8.924768 -15.070911 12.552142 2.507879 1.613244 -3.261048 -22.562390 0.544586 5.042389 25.563073 -0.778138 5.142790 3.261320 -0.048120 -0.290020 -0.395840 18.490244 -10.971127 3.015253 -5.483030 3.747495 -27.390181 8.403866 -4.534294 13.009563 0.447080 -3.602729 3.223385 0.266630 1.504020 0.510870 -4.118962 0.311584 -6.306372 7.352207 0.517501 -0.278421 -1.016056 -0.699584 5.825150 1.676963 1.488660 -4.893436 4.153389 -4.201949 14.746695 -7.322660 -4.071410 7.191790 -14.263257 5.413758 -1.846103 -38.741840 -4.230805 -1.240111 2.683894 -15.466868 -1.337022 -5.054742 3.032311 -0.357850 1.191440 -0.902110 0.404220 11.341168 -5.788275 2.888189 49.097575 6.185318 3.328876 60.620375 87.080435 44.126745 1.966899 -1.967014 -0.479590 0.429490 0.375130 0.147660 
0.179120 17.173410 -1.763990 -3.086823 3.812333 8.090190 -15.103943 12.412885 2.932450 1.114744 -4.594098 -26.602224 1.622962 5.644637 32.787752 -0.599800 6.014829 2.847973 -0.066960 -0.350060 -0.310060 18.463323 -11.042459 2.804519 -5.778338 3.582733 -26.957603 7.263178 -5.599508 19.473881 0.313540 -3.930075 3.067059 0.160130 1.316760 0.456440 -4.024372 0.339913 -6.508016 6.696137 1.185394 1.776373 -0.661605 0.227161 4.516171 1.850601 2.041885 -5.036727 4.751273 -5.149997 16.645311 -7.011000 -4.112440 5.413730 -14.532113 4.916297 -1.899238 -39.698216 -5.403800 -1.486825 3.494275 -18.762021 -1.378497 -4.847707 2.938224 -0.161190 1.010990 -0.759970 0.328510 11.145215 -5.334699 3.127082 50.616044 4.374248 -2.958335 38.530399 80.386459 24.025734 1.607221 -2.374728 -0.476620 0.411860 0.370620 0.075560 
0.129590 17.191340 -1.801220 -3.610276 1.881139 6.734156 -15.081144 12.141303 3.403193 2.647878 -5.624176 -30.638842 1.141337 7.246864 40.280696 -0.324096 7.303960 2.272171 -0.056120 -0.382520 -0.198170 18.499064 -11.110235 2.674364 -4.607771 3.825178 -25.813001 5.344544 -6.262345 25.707877 0.116018 -4.344504 2.875414 0.050290 1.079850 0.419420 -4.082262 0.645052 -6.902121 8.077760 2.257858 4.744571 -1.213553 1.803827 3.446822 2.104877 2.258419 -5.622662 4.736987 -5.881405 19.561546 -6.427790 -4.205410 2.790720 -14.207995 3.966936 -1.644727 -41.883139 -6.374310 -2.070246 5.323380 -23.105779 -1.693181 -4.595473 2.878728 0.053140 0.793830 -0.581460 0.245980 10.009117 -4.045973 3.869697 53.213750 3.606513 -7.086889 24.146389 74.104838 11.849803 1.608963 -2.143714 -0.438530 0.359010 0.350580 0.000620 
0.079030 17.197770 -1.819960 -4.463965 -0.910266 4.852930 -15.010019 11.918396 3.797092 5.306434 -5.791137 -33.274220 -0.790205 9.658297 45.827287 -0.077271 8.593544 1.745375 -0.051880 -0.425600 -0.086210 18.564580 -11.222231 2.591903 -2.837046 4.083695 -23.424463 2.598835 -6.261040 30.812031 -0.098196 -4.747038 2.726905 -0.050100 0.883510 0.380580 -4.243788 1.021504 -7.345483 10.661381 3.300769 7.977162 -2.611034 3.641167 2.735136 2.484985 2.423451 -6.490248 4.543397 -6.416311 23.657430 -6.226170 -3.976070 -0.170240 -14.094390 2.386283 -1.016828 -43.796553 -6.572152 -3.104032 7.786060 -28.378923 -2.426064 -4.362365 2.778012 0.277840 0.606960 -0.416350 0.175780 8.740590 -2.037131 4.734981 56.854964 3.770840 -10.301540 12.015776 66.432235 3.268820 1.636724 -1.806296 -0.433040 0.347630 0.335360 -0.081480 
0.025390 17.207410 -1.840610 -4.912245 -3.795881 2.559955 -14.939616 11.850043 4.146793 8.025041 -5.434864 -34.642835 -3.260617 12.067587 48.912479 0.196446 9.432874 1.363732 0.043310 -0.335870 0.013940 18.594541 -11.337824 2.532528 -1.671308 4.078171 -20.206390 -0.014123 -5.850022 34.518907 -0.336197 -5.083804 2.597510 -0.107620 0.634590 0.369410 -4.346711 1.170225 -7.809587 12.895025 3.963791 11.861532 -3.861960 5.391600 1.615744 2.539231 2.134705 -7.518001 3.462970 -6.194866 29.420096 -4.425370 -4.087220 -3.406050 -14.998245 0.437320 -0.126048 -44.950423 -6.121721 -4.594223 9.934323 -34.601273 -3.443142 -4.044485 2.826962 0.446640 0.384600 -0.221970 0.155120 9.144549 0.897669 5.495416 58.366691 3.673815 -12.332272 3.928478 58.807725 -1.039358 1.734419 -1.575587 -0.329110 0.254320 0.252030 -0.112290 
-0.039650 17.177970 -1.867210 -3.856526 -5.373782 1.071046 -14.984641 11.787160 4.515339 9.018122 -5.755504 -36.397808 -5.319351 13.447354 49.880289 0.328568 9.807514 1.185986 0.117070 -0.239920 0.059940 18.535837 -11.363621 2.362466 -2.238627 3.650021 -17.736193 -1.620220 -5.564083 36.207275 -0.474136 -5.270751 2.531119 -0.111480 0.514310 0.364270 -4.175129 1.036213 -8.058173 11.814479 4.564599 14.400659 -3.628407 6.506214 0.997080 2.291268 1.727506 -7.908218 2.313963 -5.927393 33.343676 -2.457050 -4.473800 -6.294360 -15.692831 -0.408857 0.335492 -46.498993 -6.237238 -5.889442 12.078815 -41.815054 -5.024441 -3.844544 2.846159 0.537810 0.264350 -0.104900 0.156880 10.344393 2.685507 5.500370 58.231454 3.978023 -12.401890 -0.673763 51.453624 -2.566247 1.803345 -1.416681 -0.265330 0.233250 0.205310 -0.112460 
-0.099400 17.130090 -1.887210 -3.091505 -5.679119 -0.093857 -15.016626 11.716862 4.880580 9.871576 -6.371080 -38.369369 -7.135092 13.964186 49.239337 0.386283 9.821233 1.171472 0.118360 -0.216960 0.051710 18.494761 -11.388886 2.194813 -2.610800 2.822074 -15.136225 -2.699030 -5.301861 35.705693 -0.514588 -5.207429 2.579238 -0.137610 0.477360 0.335000 -4.065753 0.879933 -8.255952 11.262157 4.535267 16.362908 -3.551094 6.938172 0.182373 1.901426 0.866808 -8.253807 0.407480 -5.440078 36.648088 -0.640760 -5.029500 -7.362280 -16.185815 -0.651298 0.718546 -48.494057 -6.136097 -7.103839 13.764086 -49.397804 -6.948211 -3.707622 2.823059 0.578170 0.197770 -0.050250 0.161850 11.580861 4.010661 5.553980 57.894816 3.706426 -11.966350 -3.180504 44.883744 -2.910037 1.886572 -1.290069 -0.242460 0.253790 0.188980 -0.092990 
